HIERARCHY
ROOT pelvis
{
  OFFSET 0 100 0
  CHANNELS 6 Xposition Yposition Zposition Zrotation Xrotation Yrotation
  JOINT pelvis_right_femur
  {
    OFFSET -10.78128 -3.44521 -0.5502486
    CHANNELS 3 Zrotation Xrotation Yrotation
    JOINT right_femur_tibia
    {
      OFFSET -0.8047443 -44.0398 -0.1307829
      CHANNELS 3 Zrotation Xrotation Yrotation
      JOINT right_tibia_foot
      {
        OFFSET 3.006224 -47.83518 -5
        CHANNELS 3 Zrotation Xrotation Yrotation
        End Site
        {
          OFFSET 0 -5 15
        }
      }
    }
  }
  JOINT pelvis_left_femur
  {
    OFFSET 10.78128 -3.44521 -0.5502486
    CHANNELS 3 Zrotation Xrotation Yrotation
    JOINT left_femur_tibia
    {
      OFFSET 0.8047443 -44.0398 -0.1307829
      CHANNELS 3 Zrotation Xrotation Yrotation
      JOINT left_tibia_foot
      {
        OFFSET -4.370144 -48.10324 -4.275266
        CHANNELS 3 Zrotation Xrotation Yrotation
        End Site
        {
          OFFSET 0 -5 15
        }
      }
    }
  }
  JOINT pelvis_spine1
  {
    OFFSET 0 6.468898 -3.129235
    CHANNELS 3 Zrotation Xrotation Yrotation
    JOINT spine1
    {
      OFFSET 0 23.15396 4.99043
      CHANNELS 3 Zrotation Xrotation Yrotation
      JOINT spine2
      {
        OFFSET 0 20.79997 -5.064912
        CHANNELS 3 Zrotation Xrotation Yrotation
        JOINT neck
        {
          OFFSET 0 14.38658 9.616178
          CHANNELS 3 Zrotation Xrotation Yrotation
          End Site
          {
            OFFSET 0 20 0
          }
        }
      }
      JOINT right_manubrium
      {
        OFFSET -5.722621 16.35077 3.967754
        CHANNELS 3 Zrotation Xrotation Yrotation
        JOINT right_clavicle
        {
          OFFSET -13.16364 1.694482 -4.693211
          CHANNELS 3 Zrotation Xrotation Yrotation
          JOINT right_humerus
          {
            OFFSET -28.5034 -0.3100689 -2.792744
            CHANNELS 3 Zrotation Xrotation Yrotation
            JOINT right_radius
            {
              OFFSET -25.15693 0.02248979 -1.271978
              CHANNELS 3 Zrotation Xrotation Yrotation
              End Site
              {
                OFFSET -15 0 0
              }
            }
          }
        }
      }
      JOINT left_manubrium
      {
        OFFSET 5.722621 16.35077 3.967754
        CHANNELS 3 Zrotation Xrotation Yrotation
        JOINT left_clavicle
        {
          OFFSET 13.16364 1.694482 -4.693211
          CHANNELS 3 Zrotation Xrotation Yrotation
          JOINT left_humerus
          {
            OFFSET 29.39168 -1.063119 -2.237045
            CHANNELS 3 Zrotation Xrotation Yrotation
            JOINT left_radius
            {
              OFFSET 24.59957 -0.9528479 0.9047498
              CHANNELS 3 Zrotation Xrotation Yrotation
              End Site
              {
                OFFSET 15 -0 -0
              }
            }
          }
        }
      }
    }
  }
}
MOTION
Frames: 21
Frame Time: 0.0416666666667
-1025.556 95.91594 2777.657 -3.725466 -5.360348 -40.94589 1.478483 -23.72759 -1.152557 -0 17.78144 -0 -4.149911 -1.917692 -6.622094 -4.483284 15.53563 -8.121676 -0 14.24773 -0 -1.355367 -17.91271 13.90713 0.3799531 -2.649434 5.07187 0.008785889 14.56511 -5.47717 1.708796 22.46501 3.834436 1.55707 -19.45382 5.688836 -2.514371 -23.92965 11.90202 92.06508 16.71234 -14.70814 -0 0 14.70351 -24.27662 11.99965 14.47754 3.833487 -23.98005 -7.801799 -91.08543 15.33764 24.22451 0 0 -14.79047 8.249656 15.84559 4.520116
-1029.896 94.92698 2782.335 -3.703711 -5.004537 -40.66948 2.217163 -23.88122 -1.167284 -0 13.69312 -0 -4.850297 -1.567783 -6.521861 -4.263673 16.82544 -7.802364 -0 18.40925 -0 -1.826098 -16.91761 13.45999 0.421967 -2.747072 4.863924 0.1151538 14.75175 -5.817292 1.612061 22.39333 3.964837 1.71328 -19.46862 5.60436 -2.518309 -23.65735 11.95036 92.65664 16.53608 -15.85107 -0 0 13.87401 -24.34363 12.09231 14.14699 4.010954 -24.70232 -8.135468 -90.4024 14.97925 23.16894 0 0 -16.18805 8.853801 15.85797 3.797517
-1034.513 94.2417 2787.209 -3.977489 -4.965027 -40.63953 3.108875 -22.75982 -0.9120783 -0 11.68951 -0 -5.729935 -1.030818 -6.432442 -4.058006 17.37385 -7.513536 -0 24.49782 -0 -2.119664 -15.21417 13.26562 0.5089943 -2.894394 4.784852 0.2126559 15.03209 -6.138224 1.518966 22.21409 4.01602 1.796118 -19.49082 5.4899 -2.548819 -23.65946 12.02013 93.14102 16.27962 -16.75221 -0 0 13.53195 -24.42031 12.3555 13.92331 4.079912 -25.33794 -8.459608 -89.92214 14.52624 22.6684 0 0 -17.34344 9.274116 15.78391 3.311237
-1039.327 94.01164 2792.188 -4.507209 -5.243423 -40.86443 4.051794 -20.5105 -0.422953 -0 11.57663 -0 -6.672235 -0.4986214 -6.350789 -3.852333 16.9806 -7.260938 -0 31.96058 -0 -2.266515 -13.02758 13.36834 0.6365676 -3.08274 4.829735 0.3011142 15.3881 -6.427057 1.436128 21.94145 3.981724 1.797282 -19.51941 5.352485 -2.605272 -23.92631 12.10607 93.50044 15.95952 -17.37365 -0 0 13.67351 -24.48971 12.77225 13.81784 4.035028 -25.85381 -8.758015 -89.65758 14.02677 22.73355 0 0 -18.19596 9.483098 15.64041 3.095539
-1044.224 94.30289 2797.152 -5.20749 -5.768166 -41.33851 4.929913 -17.34715 0.23609 -0 12.82465 -0 -7.521302 -0.1744624 -6.242378 -3.620766 15.43025 -7.031816 -0 39.94197 -0 -2.343113 -10.66107 13.78355 0.7977072 -3.300149 4.988723 0.3770487 15.79536 -6.668557 1.372016 21.5942 3.861584 1.710986 -19.55024 5.206656 -2.686255 -24.43422 12.20111 93.72147 15.60503 -17.68357 -0 0 14.27713 -24.54484 13.33315 13.8393 3.878188 -26.21691 -9.011236 -89.60754 13.52513 23.34086 0 0 -18.70833 9.467228 15.45079 3.166858
-1049.076 95.06978 2801.971 -5.961832 -6.409342 -42.03733 5.643399 -13.52838 0.988824 -0 14.68528 -0 -8.111025 -0.2716819 -6.060973 -3.3256 12.55465 -6.791643 -0 47.36412 -0 -2.434086 -8.443575 14.48925 0.9833116 -3.53242 5.249636 0.4334691 16.22559 -6.845563 1.335662 21.1936 3.661457 1.535312 -19.57726 5.072169 -2.789402 -25.14954 12.29727 93.79379 15.25429 -17.65651 -0 0 15.30908 -24.58942 14.03369 13.99304 3.618472 -26.39652 -9.197839 -89.76157 13.05643 24.44062 0 0 -18.86538 9.227423 15.23929 3.522714
-1053.763 96.15178 2806.55 -6.640279 -7.007343 -42.91564 6.12695 -9.3249 1.753566 -0 16.35039 -0 -8.301058 -0.9963989 -5.766893 -2.918864 8.310186 -6.486572 -0 53.06746 -0 -2.595815 -6.665947 15.41663 1.182541 -3.764098 5.599408 0.4606357 16.64894 -6.940293 1.335143 20.76209 3.393342 1.273725 -19.59393 4.970718 -2.911208 -26.03139 12.38634 93.70967 14.94851 -17.27589 -0 0 16.72537 -24.63623 14.86766 14.27952 3.271747 -26.36757 -9.296607 -90.1037 12.64444 25.96305 0 0 -18.67153 8.778239 15.02661 4.142215
-1058.206 97.30261 2810.858 -7.120306 -7.410712 -43.91165 6.353682 -4.980804 2.446456 -0 17.14132 -0 -8.010946 -2.499227 -5.337111 -2.349058 2.850701 -6.055244 -0 56.01883 -0 -2.8371 -5.517789 16.44967 1.383208 -3.979351 6.024128 0.4477563 17.03584 -6.936541 1.376011 20.32269 3.074886 0.9364893 -19.59487 4.922088 -3.046843 -27.0329 12.46062 93.46484 14.72501 -16.53839 -0 0 18.46973 -24.70333 15.81863 14.69217 2.859824 -26.11482 -9.289566 -90.61422 12.30239 27.82178 0 0 -18.14786 8.146463 14.82713 4.987636
-1062.385 98.24896 2814.943 -7.310689 -7.514987 -44.95723 6.327823 -0.681534 2.991006 -0 16.70107 -0 -7.242282 -4.799186 -4.767296 -1.578664 -3.432123 -5.451994 -0 55.56276 -0 -3.125853 -5.04406 17.44592 1.572321 -4.162949 6.507996 0.3854942 17.35896 -6.822697 1.459825 19.89888 2.728327 0.5415346 -19.57718 4.940172 -3.189977 -28.10163 12.51361 93.06067 14.61025 -15.45985 -0 0 20.46916 -24.80874 16.85187 15.21539 2.409041 -25.63736 -9.165632 -91.26998 12.03534 29.91562 0 0 -17.32914 7.369497 14.64791 6.006756
-1066.342 98.76252 2818.923 -7.174583 -7.291701 -45.98962 6.071801 3.45562 3.336559 -0 15.13759 -0 -6.082921 -7.704889 -4.072074 -0.6165899 -9.930529 -4.681005 -0 51.64914 -0 -3.415492 -5.14012 18.27662 1.736985 -4.30158 7.031804 0.2689335 17.59544 -6.595319 1.583034 19.51418 2.378679 0.1142635 -19.5412 5.029404 -3.332732 -29.18038 12.54087 92.50737 14.61416 -14.08129 -0 0 22.62982 -24.9644 17.91019 15.82311 1.948234 -24.95283 -8.924356 -92.04334 11.84315 32.13069 0 0 -16.26154 6.493584 14.48949 7.135946
-1070.171 98.72246 2822.944 -6.744127 -6.797731 -46.95908 5.614649 7.358908 3.476656 -0 13.05343 -0 -4.695624 -10.77585 -3.289887 0.4400345 -15.91941 -3.834253 -0 44.94364 -0 -3.670512 -5.591612 18.86786 1.865678 -4.385464 7.571702 0.1002843 17.72967 -6.262415 1.736583 19.19095 2.051167 -0.3141421 -19.49039 5.182552 -3.465815 -30.20916 12.54085 91.82742 14.72772 -12.47317 -0 0 24.83626 -25.17083 18.9164 16.47854 1.506351 -24.09991 -8.578685 -92.90077 11.72305 34.3443 0 0 -15.0009 5.571601 14.34813 8.304097
-1073.992 98.14915 2827.149 -6.11875 -6.160546 -47.82925 4.987678 10.95324 3.453114 -0 11.41739 -0 -3.297015 -13.36994 -2.491086 1.382284 -20.71378 -3.108538 -0 36.73942 -0 -3.872693 -6.146902 19.21913 1.949684 -4.409837 8.098955 -0.1096702 17.75562 -5.845107 1.906594 18.94858 1.768284 -0.7099775 -19.4303 5.380879 -3.578963 -31.12864 12.51545 91.05754 14.92527 -10.73514 -0 0 26.956 -25.41408 19.78307 17.13597 1.110114 -23.13752 -8.155392 -93.80168 11.67174 36.43135 0 0 -13.6114 4.660107 14.21921 9.437445
-1077.919 97.20014 2831.64 -5.444345 -5.542956 -48.57218 4.228815 14.10724 3.33846 -0 11.28772 -0 -2.123848 -14.79926 -1.776316 1.931622 -23.82844 -2.759141 -0 28.64998 -0 -4.00724 -6.596727 19.38935 1.98421 -4.375679 8.581138 -0.3422269 17.67777 -5.376414 2.076248 18.80152 1.547234 -1.041345 -19.36706 5.597259 -3.661842 -31.88443 12.46985 90.2475 15.17141 -8.989232 -0 0 28.84974 -25.66676 20.42715 17.74522 0.7821806 -22.1395 -7.692196 -94.69886 11.68703 38.27264 0 0 -12.16355 3.815504 14.10087 10.46511
-1082.032 96.12991 2836.462 -4.877811 -5.098391 -49.16297 3.391305 16.60568 3.203356 -0 13.46539 -0 -1.375773 -14.56223 -1.249768 1.864995 -25.06999 -2.977093 -0 22.15763 -0 -4.044258 -6.83395 19.45842 1.968757 -4.289214 8.984812 -0.5736419 17.5098 -4.896846 2.228547 18.75799 1.398494 -1.282547 -19.3065 5.801764 -3.705469 -32.43133 12.41147 89.45549 15.43028 -7.366653 -0 0 30.38505 -25.89309 20.78424 18.25799 0.5399641 -21.18532 -7.231842 -95.54096 11.76903 39.7635 0 0 -10.73137 3.089603 13.99651 11.32482
-1086.354 95.22379 2841.595 -4.547058 -4.931485 -49.57815 2.548349 18.16822 3.086545 -0 18.20362 -0 -1.145725 -12.55832 -0.9770703 1.145876 -24.52764 -3.767674 -0 18.18024 -0 -3.932923 -6.874736 19.48523 1.906623 -4.160274 9.279191 -0.7794201 17.27109 -4.447987 2.349211 18.81972 1.325878 -1.417385 -19.25401 5.968147 -3.704004 -32.73662 12.34806 88.7408 15.67367 -5.991149 -0 0 31.45037 -26.0565 20.81787 18.63471 0.3950924 -20.34906 -6.81479 -96.27673 11.92075 40.82074 0 0 -9.389309 2.525402 13.91492 11.96777
-1090.839 94.72319 2846.952 -4.518035 -5.07611 -49.79797 1.784937 18.51273 2.984788 -0 25.08862 -0 -1.384758 -9.171897 -0.9696179 -0.05444708 -22.48859 -4.941966 -0 16.83699 -0 -3.616076 -6.838351 19.48382 1.80383 -4.00015 9.439895 -0.9386593 16.98244 -4.06611 2.428909 18.98259 1.327832 -1.44053 -19.21496 6.079203 -3.656345 -32.78175 12.28576 88.15648 15.88522 -4.963731 -0 0 31.96616 -26.12733 20.52226 18.84952 0.3533463 -19.68982 -6.472885 -96.85956 12.14736 41.38657 0 0 -8.2096 2.153986 13.86815 12.36176
-1095.374 94.76205 2852.393 -4.777823 -5.494687 -49.81003 1.174959 17.43774 2.867475 -0 33.13208 -0 -1.930955 -5.16548 -1.213456 -1.456354 -19.33115 -6.225707 -0 17.50743 -0 -3.060258 -6.899409 19.42786 1.667955 -3.819725 9.45188 -1.037279 16.66248 -3.777695 2.464277 19.23746 1.399235 -1.35687 -19.19436 6.12948 -3.566813 -32.56279 12.2278 87.74364 16.0604 -4.35243 -0 0 31.8919 -26.08895 19.92047 18.89232 0.4149621 -19.24608 -6.225838 -97.2509 12.45363 41.42953 0 0 -7.260234 1.993093 13.86837 12.49183
-1099.815 95.33248 2857.755 -5.238077 -6.093755 -49.61118 0.7552296 14.88957 2.702031 -0 41.02392 -0 -2.576537 -1.423558 -1.701595 -2.795695 -15.43683 -7.383323 -0 19.13395 -0 -2.286307 -7.233414 19.27603 1.507291 -3.62846 9.311054 -1.069591 16.32606 -3.59757 2.457659 19.57091 1.533009 -1.179325 -19.19553 6.12492 -3.444471 -32.08991 12.17437 87.52843 16.20353 -4.188241 -0 0 31.22885 -25.94126 19.06063 18.76802 0.57517 -19.03462 -6.080981 -97.42204 12.83997 40.9434 0 0 -6.602615 2.047282 13.92515 12.35883
-1104.032 96.29016 2862.886 -5.757933 -6.747112 -49.2074 0.5149501 10.99099 2.46905 -0 47.44353 -0 -3.135678 1.333458 -2.426197 -3.89458 -11.14045 -8.27901 -0 20.61599 -0 -1.383092 -7.970588 18.99875 1.330421 -3.434282 9.024626 -1.03824 15.98467 -3.529345 2.415832 19.96563 1.721085 -0.9259771 -19.21828 6.079978 -3.301303 -31.38678 12.12371 87.52112 16.3238 -4.466225 -0 0 30.01951 -25.70124 18.01165 18.49387 0.8248115 -19.05293 -6.035483 -97.35513 13.29777 39.94633 0 0 -6.287855 2.309183 14.04382 11.97673
-1107.953 97.39824 2867.691 -6.181085 -7.320188 -48.61393 0.4079441 6.027839 2.159823 -0 51.33794 -0 -3.495456 2.743832 -3.340246 -4.67341 -6.715904 -8.873661 -0 21.14141 -0 -0.4940116 -9.163454 18.59042 1.146125 -3.244134 8.61055 -0.9528302 15.64819 -3.567287 2.348106 20.40073 1.954713 -0.617255 -19.25795 6.013275 -3.149939 -30.49 12.07369 87.71669 16.43135 -5.149982 -0 0 28.34424 -25.40011 16.85743 18.09573 1.150872 -19.28343 -6.079672 -97.04472 13.80576 38.48123 0 0 -6.351294 2.761256 14.2244 11.36997
-1111.588 98.39444 2872.144 -6.378012 -7.693463 -47.85779 0.3778202 0.4042967 1.767689 -0 52.11393 -0 -3.635552 2.849145 -4.33502 -5.130957 -2.380044 -9.191463 -0 20.36855 -0 0.2206604 -10.76923 18.06439 0.9633896 -3.064794 8.096362 -0.8276328 15.32711 -3.698859 2.264222 20.85207 2.224247 -0.2736965 -19.30624 5.942873 -3.001714 -29.44867 12.02338 88.09631 16.53368 -6.178009 -0 0 26.31551 -25.07758 15.68883 17.60433 1.536841 -19.69805 -6.200343 -96.50033 14.32875 36.61777 0 0 -6.806006 3.377564 14.46051 10.57134
